<?xml version="1.0" encoding="UTF-8" standalone="no"?>
<svg
   viewBox="216.147 34.625 128 81.999998"
   version="1.1"
   id="svg6"
   sodipodi:docname="dkhotels.svg"
   inkscape:version="1.1.2 (08b2f3d93c, 2022-04-05)"
   width="128"
   height="82"
   xmlns:inkscape="http://www.inkscape.org/namespaces/inkscape"
   xmlns:sodipodi="http://sodipodi.sourceforge.net/DTD/sodipodi-0.dtd"
   xmlns="http://www.w3.org/2000/svg"
   xmlns:svg="http://www.w3.org/2000/svg">
  <defs
     id="defs10" />
  <sodipodi:namedview
     id="namedview8"
     pagecolor="#ffffff"
     bordercolor="#666666"
     borderopacity="1.0"
     inkscape:pageshadow="2"
     inkscape:pageopacity="0.0"
     inkscape:pagecheckerboard="0"
     showgrid="false"
     inkscape:zoom="2.8752554"
     inkscape:cx="7.1298013"
     inkscape:cy="77.036634"
     inkscape:window-width="1600"
     inkscape:window-height="836"
     inkscape:window-x="0"
     inkscape:window-y="27"
     inkscape:window-maximized="1"
     inkscape:current-layer="svg6"
     inkscape:snap-page="false"
     width="130px"
     showborder="false" />
  <path
     d="m 268.94621,75.492446 q -0.10578,0.314891 -0.37023,0.83971 -0.26445,0.52482 -0.58179,1.102121 -0.31734,0.577301 -0.63468,0.944674 -0.31734,0.367374 -0.42312,0.26241 0,0 0.10578,-0.524819 0.10578,-0.524819 0.26445,-1.154603 0.15867,-0.629783 0.31734,-1.207084 0.15867,-0.577301 0.15867,-0.787229 1.58669,-8.397107 0,-14.48501 -1.5867,-6.087904 -5.34188,-9.971566 -3.75518,-3.883662 -9.20284,-5.773011 -5.44765,-1.88935 -11.4771,-1.994314 -4.33697,0 -8.51527,0.682265 -4.1783,0.682265 -7.61614,1.731904 -3.43784,1.049638 -5.81789,2.309205 -2.38004,1.259566 -3.01472,2.414168 -0.74046,1.259566 -0.42312,-0.314891 0.84624,-2.72906 4.49564,-5.038265 3.6494,-2.309205 8.51527,-3.778699 4.86587,-1.469493 10.20775,-1.941831 5.34187,-0.472337 9.67884,0.577301 2.85606,0.629783 5.71211,1.784386 2.85605,1.154602 5.44766,2.781542 2.5916,1.626939 4.76008,3.883662 2.16849,2.256723 3.64941,5.19571 2.85605,5.668048 2.80316,11.703469 -0.0529,6.035422 -2.69738,10.758795 z m 6.87568,-0.734747 q -2.00982,5.877975 -5.34188,10.601348 -3.33206,4.723373 -7.14013,8.44959 -3.80807,3.726217 -7.8277,6.455273 -4.01963,2.72906 -7.51036,4.61841 -1.0578,0.52482 -1.79826,0.83971 -0.74046,0.31489 -0.74046,0.10496 -0.21156,-0.10496 0.58179,-0.68226 0.79335,-0.5773 1.63959,-1.20709 5.92366,-4.723366 11.4771,-9.971557 5.55344,-5.248193 9.99618,-11.965879 2.22138,-3.463807 3.38496,-7.609879 1.16357,-4.146072 1.16357,-8.554553 0,-4.408482 -1.21646,-8.712 -1.21647,-4.303517 -3.75518,-7.977252 -3.38496,-4.828337 -8.19793,-7.662361 -4.81298,-2.834024 -10.31353,-3.936144 -5.50055,-1.10212 -11.31843,-0.682265 -5.81789,0.419855 -11.21266,1.994313 -0.84623,0.209928 -1.0049,0.314892 -0.15867,0.104964 -0.26445,-0.104964 -0.10578,-0.209928 0.31734,-0.419856 0.42312,-0.209927 0.74045,-0.419855 2.32716,-1.259566 6.02945,-2.309205 3.70229,-1.049638 8.3566,-1.259566 4.65431,-0.209927 9.9433,0.787229 5.28898,0.997157 10.68375,3.831181 5.81789,3.148915 9.04417,7.977252 3.22628,4.828337 4.49564,9.919083 1.26936,5.090747 1.0578,9.866602 -0.21156,4.775855 -1.26936,7.714843 z M 229.8077,110.76029 q -0.5289,-0.83971 -1.32225,-2.67657 -0.79335,-1.83687 -1.21647,-4.356 -0.21155,-1.25957 -0.26444,-2.83403 -0.0529,-1.574456 0.0529,-2.991466 0.10578,-1.41701 0.31733,-2.36168 0.21156,-0.944678 0.63468,-0.944678 0.10578,0 0.26445,0.577298 0.15867,0.5773 0.31734,1.31205 0.15867,0.73475 0.21156,1.41701 0.0529,0.68227 0.0529,0.99716 0.21156,2.729056 0.68757,5.458116 0.47601,2.72906 1.42803,5.24819 3.70229,-4.51344 8.46238,-9.13185 4.76008,-4.618406 9.30861,-9.394263 4.54853,-4.775855 8.30371,-9.81412 3.75518,-5.038264 5.44766,-10.391421 1.16358,-3.673734 0.47601,-7.66236 -0.68757,-3.988627 -2.69738,-7.242506 -2.00982,-3.148915 -5.71211,-5.248192 -3.70229,-2.099277 -8.14504,-2.938988 -1.79826,-0.314891 -3.54362,-0.524819 -1.74537,-0.209928 -3.6494,-0.209928 0.31734,1.574458 0.37023,3.411325 0.0529,1.836868 -0.0529,3.621253 -0.10578,1.784385 -0.31734,3.411325 -0.21156,1.62694 -0.5289,2.886506 -1.48092,5.668047 -3.49073,11.388577 -2.00982,5.72053 -4.23119,10.968722 -0.21156,0.314892 -0.58179,0.997157 -0.37023,0.682265 -0.58179,0.682265 -0.21156,0 -0.21156,-0.839711 0,-0.839711 0.10578,-1.154602 0.10578,-1.259567 0.42312,-3.096434 0.31734,-1.836867 0.68757,-3.726217 0.37023,-1.889349 0.79334,-3.726216 0.42312,-1.836867 0.84624,-3.096434 0.21156,-0.629783 0.79335,-3.043951 0.58179,-2.414169 1.21647,-5.563084 0.63468,-3.148915 1.21646,-6.665204 0.58179,-3.516289 0.79335,-6.455277 h -1.26935 q -0.21156,4.09359 -1.16358,8.397108 -0.95202,4.303518 -2.27427,8.659517 -1.32224,4.356 -2.75027,8.764481 -1.42803,4.408482 -2.48582,8.816964 -0.21156,0.944674 -0.58179,3.253879 -0.37023,2.309204 -0.58179,5.19571 -0.21156,2.886506 -0.21156,6.087902 0,3.2014 0.47601,6.087896 0.47601,2.88651 1.42803,5.19571 0.95201,2.30921 2.75027,3.25388 z m 35.11887,-36.842302 q -2.32715,5.45812 -6.39967,10.496385 -4.07252,5.038264 -8.83261,9.709155 -4.76009,4.670896 -9.78463,8.869442 -5.02453,4.19855 -9.14994,7.97725 -0.84624,0.73475 -2.16849,0.15745 -1.32225,-0.5773 -1.95692,-1.41701 -2.22138,-2.93899 -3.27918,-6.61273 -1.05779,-3.673726 -1.26935,-7.609876 -0.21156,-3.93614 0.26445,-7.977248 0.47601,-4.041108 1.42802,-7.819806 2.1156,-8.712 4.81298,-16.846698 2.69739,-8.134698 3.96674,-15.482167 -5.7121,0.629783 -10.20774,2.571614 -4.49564,1.941831 -5.97656,4.670891 0,0.209928 -0.15867,0.209928 -0.15867,0 0.0529,-0.839711 0.84624,-2.938988 4.12541,-5.090746 3.27917,-2.151759 7.8277,-3.358844 4.54853,-1.207084 9.78463,-1.417012 5.2361,-0.209927 10.20774,0.629784 5.39477,0.944674 9.36151,4.041108 3.96674,3.096433 6.24101,7.242505 2.27426,4.146072 2.64449,8.869445 0.37023,4.723373 -1.53381,9.026891 z M 242.18393,50.091195 q 1.26936,2.72906 1.00491,7.137541 -0.26445,4.408482 -1.21647,9.184337 -0.95202,4.775855 -2.16849,9.184336 -1.21646,4.408482 -1.85114,7.137542 -1.26936,5.038265 -3.06761,10.076529 -1.79826,5.038264 -2.96184,8.81696 -0.5289,1.46949 -0.74045,1.46949 -0.31734,0 -0.31734,-0.5773 0,-0.5773 0,-1.10212 0.31734,-7.767319 2.27426,-15.324716 1.95693,-7.557397 4.28408,-15.324721 1.37514,-4.723374 2.64449,-9.866602 1.26936,-5.143229 1.48092,-10.811276 0,-0.734747 0.21156,-0.839711 0.10578,0 0.21156,0.314892 0.10578,0.314891 0.21156,0.524819 z m 12.58779,43.559996 q 0.10578,0.104964 -0.42312,0.839711 -0.5289,0.734742 -1.32225,1.626942 -0.79334,0.89219 -1.58669,1.78438 -0.79335,0.8922 -1.11069,1.20709 -2.22138,2.204236 -4.49564,4.460956 -2.27426,2.25672 -4.7072,3.83118 l -9.52018,5.98294 q -0.21156,0.10496 -0.58178,0.20993 -0.37023,0.10496 -0.58179,0 -0.21156,-0.10497 -0.15867,-0.31489 0.0529,-0.20993 0.15867,-0.41986 0.10578,-0.20993 0.31734,-0.41985 1.79825,-1.25957 4.07252,-3.14892 2.27426,-1.88935 4.7072,-3.88366 1.79825,-1.36453 4.28408,-3.46381 2.48582,-2.099276 4.86586,-3.988626 2.38005,-1.88934 4.12541,-3.201393 1.74537,-1.312048 1.95693,-1.10212 z M 336.7293,44.003292 q 0,1.889349 -0.89912,3.988626 -0.89913,2.099277 -2.16849,4.09359 -1.26936,1.994313 -2.85605,3.621253 -1.5867,1.626939 -3.06761,2.676578 -4.01963,2.938987 -8.83261,5.615565 -4.81298,2.676579 -9.36151,4.460964 -0.21156,0.104964 -0.95202,0.367373 -0.74046,0.26241 -0.95202,0.05248 -0.21156,-0.209927 0.31734,-0.787229 0.5289,-0.577301 0.84624,-0.787228 0.74046,-0.734747 1.95693,-1.784386 1.21646,-1.049638 2.53871,-2.046795 1.32225,-0.997156 2.64449,-1.941831 1.32225,-0.944675 2.38005,-1.469494 0.74046,-0.419855 3.33206,-2.361686 2.5916,-1.941832 5.55344,-4.513446 2.96183,-2.571614 5.55343,-5.19571 2.59161,-2.624096 3.22629,-4.303518 0.42312,-0.734747 0.63467,-0.524819 0.10578,0.104964 0.10578,0.419855 0,0.314892 0,0.419856 z m -46.11997,38.941587 q 3.91386,0.524819 7.61615,1.521976 3.70229,0.997156 6.87568,3.726216 3.70229,3.148915 7.61614,6.980093 3.91385,3.83118 7.19302,7.504916 0.21156,0.20993 0.63468,0.78723 0.42312,0.5773 0.21156,0.89219 -0.10578,0.20993 -0.79335,-0.0525 -0.68756,-0.26241 -0.89912,-0.47234 -0.95202,-0.52482 -2.27427,-1.41701 -1.32224,-0.89219 -2.69738,-1.94183 -1.37514,-1.049636 -2.6445,-2.046796 -1.26935,-0.99715 -2.11559,-1.83687 -0.5289,-0.52481 -2.80316,-2.361682 -2.27427,-1.836867 -5.34188,-3.883662 -3.06761,-2.046795 -6.39968,-3.83118 -3.33206,-1.784386 -5.97655,-2.414169 -0.84624,-0.209928 -0.79335,-1.049638 0.0529,-0.839711 0.15867,-1.469494 0.21156,-1.259566 0.58179,-3.148916 0.37023,-1.889349 0.74046,-3.883662 0.37023,-1.994313 0.79335,-3.883662 0.42311,-1.88935 0.84623,-3.25388 0.31734,-0.944674 1.16358,-4.723373 0.84624,-3.778698 1.69248,-8.397107 0.84623,-4.61841 1.26935,-8.921927 0.42312,-4.303518 -0.10578,-6.297831 -0.21156,-0.944675 0.10578,-0.944675 0.21156,0 0.31734,0.26241 0.10578,0.262409 0.31734,0.472337 1.16358,1.784386 1.79826,4.303518 0.63468,2.519132 0.79335,5.300674 0.15867,2.781542 -0.10578,5.510602 -0.26445,2.72906 -0.79335,4.723373 -1.16358,4.408482 -2.6445,8.764481 -1.48091,4.356 -3.17339,8.764482 1.16358,-1.679422 2.22138,-3.201398 1.05779,-1.521976 1.90403,-2.886506 l 0.10578,-0.524819 q 1.0578,-5.038264 2.59161,-10.181493 1.5338,-5.143228 1.74536,-11.126168 0.21156,-0.524819 0.31734,-0.524819 0.10578,0 0.21156,0.209928 0.10578,0.209928 0.21156,0.419855 1.16358,2.834024 0.84624,7.399951 -0.31734,4.565928 -1.26936,9.499229 1.26936,-1.049639 2.48582,-1.994314 1.21647,-0.944674 2.69739,-1.889349 4.01963,-2.72906 8.25082,-5.248192 4.23119,-2.519132 8.19793,-5.143229 3.96674,-2.624096 7.35169,-5.353156 3.38495,-2.72906 5.81789,-5.982939 0.31734,-0.314892 0.42312,-0.104964 0.10578,0 0.0529,0.26241 -0.0529,0.262409 -0.0529,0.367373 -1.5867,4.303518 -4.81298,7.609879 -3.22628,3.306361 -7.2988,6.140385 -4.07252,2.834024 -8.51527,5.353156 -4.44275,2.519133 -8.46238,5.353156 -4.97165,3.358844 -9.30862,7.977253 -4.33697,4.618409 -6.87569,10.286457 z m 5.07743,-0.629783 q -0.5289,0 -1.42802,-0.05248 -0.89913,-0.05248 -1.63959,0.05248 0.42312,-0.839711 1.00491,-1.679422 0.58179,-0.839711 1.11068,-1.679421 0.63468,-0.839711 1.53381,-1.836868 0.89913,-0.997156 1.79826,-1.784385 0.89912,-0.787229 1.58669,-1.154602 0.68757,-0.367374 0.89913,0.05248 0.10578,0.104964 -0.15867,0.52482 -0.26445,0.419855 -0.68757,0.997156 -0.42312,0.577301 -0.79335,1.049639 -0.37022,0.472337 -0.476,0.682265 -1.16358,1.469494 -1.69248,2.571614 -0.5289,1.10212 -1.0578,2.256724 z m 40.51365,28.445194 q -0.21156,0.20993 -0.58179,0.0525 -0.37023,-0.15745 -0.79335,-0.36738 -3.06761,-1.36453 -5.765,-3.35884 -2.69738,-1.99431 -5.23609,-4.30352 -2.53872,-2.3092 -5.02454,-4.775846 -2.48583,-2.46665 -5.02454,-4.880822 -1.79826,-1.679422 -3.80807,-3.463807 -2.00982,-1.784385 -4.12541,-3.306361 -2.1156,-1.521976 -4.38986,-2.624096 -2.27427,-1.102121 -4.60142,-1.417012 1.37514,-1.994313 4.44275,-4.513446 3.06761,-2.519132 6.66412,-4.933301 3.59651,-2.414168 7.08725,-4.618409 3.49073,-2.204241 5.7121,-3.568771 3.70229,-2.309204 7.45747,-4.9333 3.75519,-2.624097 6.92858,-6.402795 0.31734,-0.419855 0.63468,-0.314892 0,0.209928 -0.10578,0.367374 -0.10578,0.157446 -0.10578,0.367373 -0.5289,2.624097 -3.12051,5.510602 -2.5916,2.886506 -5.87077,5.510602 -3.27917,2.624096 -6.66413,4.880819 -3.38495,2.256723 -5.39476,3.621253 -1.90404,1.259566 -3.96674,2.414168 -2.06271,1.154603 -4.1783,2.256723 -2.1156,1.10212 -4.07252,1.994313 -1.95693,0.892193 -3.6494,1.62694 2.75027,0 6.29389,1.679421 3.54362,1.679422 7.03435,4.041108 3.49074,2.361687 6.45257,4.933301 2.96183,2.571614 4.54853,4.251035 3.38495,3.673736 6.71701,7.137536 3.33206,3.46381 5.87078,5.98294 0.84624,0.83971 0.63468,1.1546 z m -43.3697,-74.524323 q 1.48092,5.038265 0.95202,10.443903 -0.5289,5.405638 -2.06271,11.073686 -1.5338,5.668047 -3.43784,11.546023 -1.90404,5.877975 -3.27917,11.650987 -0.84624,3.673734 -1.32225,7.66236 -0.47601,3.988627 -0.31734,8.029738 0.15867,4.041096 0.95202,7.872286 0.79335,3.83118 2.5916,7.08505 0.42312,0.83972 0.31734,0.83972 -0.21156,0 -0.42312,-0.20993 -0.21156,-0.20993 -0.31734,-0.20993 -2.96183,-3.46381 -4.33696,-7.50491 -1.37514,-4.04111 -1.69248,-8.344626 -0.31734,-4.303518 0.26445,-8.712 0.58179,-4.408481 1.5338,-8.607035 1.37514,-5.773012 3.1734,-11.493541 1.79825,-5.72053 3.33206,-11.126168 1.53381,-5.405638 2.5916,-10.443903 1.0578,-5.038265 0.95202,-9.656674 0,-0.629783 0.10578,-0.629783 0.10578,-0.104964 0.26445,0.26241 0.15867,0.367373 0.15867,0.472337 z m 50.03382,77.883173 q 0,0.20992 -0.21156,0.31489 -0.21156,0.10496 -0.42312,0.20993 -4.01963,1.46949 -7.77481,1.31204 -3.75518,-0.15744 -7.2988,-1.25956 -3.54362,-1.10212 -6.76991,-2.88651 -3.22628,-1.78438 -6.08233,-3.56877 -2.85606,-1.78438 -5.50055,-4.09359 -2.64449,-2.3092 -5.18321,-4.723366 -2.53871,-2.41417 -5.02453,-4.723374 -2.48583,-2.309205 -4.91876,-4.09359 l -3.27917,10.91624 q -0.21156,0.52481 -0.37023,0.94467 -0.15867,0.41986 -0.37023,0.31489 -0.21156,-0.10496 -0.26445,-0.5773 -0.0529,-0.47234 -0.0529,-0.99716 0.10578,-3.043946 0.5289,-6.192856 0.42312,-3.148918 1.05779,-6.297834 -0.63467,-0.419855 -1.58669,-0.944674 -0.95202,-0.52482 -1.79826,-1.049639 -0.21156,-0.104964 -0.5289,-0.367373 -0.31734,-0.26241 -0.21156,-0.472338 0,-0.104963 0.5289,-0.104963 3.80807,0.314891 7.45747,2.46665 3.64941,2.151759 7.29881,5.143228 3.6494,2.991473 7.35169,6.455273 3.70229,3.463806 7.72192,6.612726 5.07743,3.88366 11.63577,6.14038 6.55835,2.25672 13.32825,1.41701 0.74046,-0.20992 0.74046,0.10497 z m -52.67831,-1.67942 q -0.21156,0 -0.63468,-0.20993 -0.21156,-0.10497 -0.31734,-0.31489 -1.37514,-1.57446 -2.16849,-2.93899 -0.79334,-1.36453 -1.32224,-4.40848 -0.21156,-1.15461 -0.26445,-2.93899 -0.0529,-1.784386 0.0529,-3.463806 0.10578,-1.67942 0.37023,-2.83402 0.26445,-1.154604 0.68756,-1.154604 0.10578,0 0.26445,0.52482 0.15867,0.524814 0.26445,1.207084 0.10578,0.68226 0.15867,1.36453 0.0529,0.68226 0.0529,0.89219 0.21156,2.309206 0.37023,3.778696 0.15867,1.46949 0.37023,2.6241 0.5289,3.35884 2.1156,7.03257 0.10578,0.20993 0.15867,0.52482 0.0529,0.3149 -0.15867,0.3149 z m 38.29226,-2.09928 q 0.74046,0.10496 1.85115,0.36737 1.11069,0.26241 1.74537,0.47234 2.75027,0.73475 4.60141,1.10212 1.85115,0.36737 4.38986,0.47234 0.21156,0 0.58179,0 0.37023,0 0.37023,0.20992 0,0.41986 -1.0578,0.52482 -1.26935,0.20993 -2.22137,0.20993 -0.95202,0 -2.43293,-0.10496 -0.84624,-0.10497 -2.00982,-0.31489 -1.16358,-0.20993 -2.32715,-0.5773 -1.16358,-0.36738 -2.16849,-0.73475 -1.00491,-0.36738 -1.42803,-0.78723 -0.42311,-0.41986 -0.31733,-0.73475 0,-0.10496 0.42311,-0.10496 z"
     style="white-space:pre;fill:#ff0000;stroke-width:5.19069"
     id="path2" />
  <path
     d="m 230.50245,99.692524 q -0.12177,1.318016 -0.12177,3.740846 0,2.42284 0.77119,5.87295 l -3.20652,1.55062 -1.46119,-10.54418 q -1.42061,-0.19382 -1.42061,-0.930366 0,-0.54271 0.66971,-1.27925 0.66972,-0.73654 0.99443,-1.22111 0.32471,-0.48457 0.38559,-1.08543 0.0609,-0.60086 0.18265,-2.151476 0.12177,-1.550614 0.22324,-3.295055 0.10147,-1.74444 0.20295,-3.295054 0.10147,-1.550614 0.10147,-2.170859 0.89295,-0.852838 1.29884,-1.046664 1.01472,-0.50395 1.38002,0.387653 l -0.24353,12.211085 q 10.02544,0 12.05488,-1.24049 V 82.945893 q 0.24353,-0.659011 2.27297,-0.659011 0.44648,0 0.7306,0.03876 0,0.736542 0.0609,2.229008 0.0609,1.492465 0.12177,3.391967 0.0609,1.899502 0.14206,4.012213 0.0812,2.112711 0.16236,4.012204 0.12176,3.95407 0.20294,5.814806 0.28412,4.65184 1.98885,7.52047 -1.82649,0.69778 -4.01829,0.69778 -1.86709,-4.41925 -1.98885,-11.590836 -2.67886,-0.0775 -3.653,-0.0775 -0.97413,0 -2.19179,0.1163 -2.51651,0.15506 -5.64185,1.24049 z m 20.97486,3.566406 q 0,-4.574306 4.14006,-7.365416 3.28769,-2.209621 7.91482,-2.674805 0.24353,0 1.13648,0 0.89296,0 2.39474,0.503949 3.32829,1.08543 4.54595,3.837766 0.48707,1.08543 0.48707,1.84136 0,0.755916 -0.0406,1.066036 0,4.84567 -3.85594,7.63678 -3.57182,2.55851 -8.92954,2.55851 -3.85594,0 -5.8245,-1.70568 -1.96855,-1.70567 -1.96855,-5.6985 z m 2.80062,0.93037 q 0,2.40345 1.33944,3.25629 1.01472,0.62024 3.40946,0.62024 2.39474,0 4.22123,-0.34889 1.8265,-0.34888 3.24711,-1.20172 3.04416,-1.86074 3.04416,-5.77604 0,-2.325916 -1.29884,-3.798996 -1.42061,-1.58938 -3.73417,-1.58938 -1.58297,0.27136 -3.18622,0.58148 -1.60326,0.31012 -3.02387,1.20172 -3.08475,1.89951 -4.0183,7.055296 z m 25.67909,2.71357 0.0812,-6.20245 q 0,-1.473086 -0.28412,-2.519746 h -6.29127 l -0.0812,-2.67481 h 6.08832 V 85.504405 q 0.12177,-0.348888 0.48707,-0.697776 0.56824,-0.542715 0.95384,-0.542715 0.38559,0 0.66971,0.07753 0.28412,0.07753 0.60883,0.542715 0.64943,2.558513 0.64943,7.714303 0,1.279257 0.12176,2.519752 1.29884,-0.15506 2.59769,-0.15506 0,0 2.11062,0 0.77118,0 1.4206,-0.0775 l -0.12176,2.79111 -5.92597,-0.15506 0.20294,13.374036 q -0.73059,0.31012 -1.25825,0.31012 -2.02944,0 -2.02944,-4.30295 z m 18.94816,1.0079 q 3.57182,0 10.75604,-3.10123 0.44648,0 0.7306,0.29074 0.28412,0.29074 0.28412,0.6784 -1.62355,2.63604 -6.21009,4.10912 -4.58653,1.47309 -8.56424,0.50395 -4.50536,-1.12419 -5.47949,-4.84567 -0.0812,-0.73654 -0.0812,-1.97703 0,-1.24049 0.66972,-3.27567 0.66971,-2.035176 2.29327,-3.857146 1.62355,-1.821973 3.81535,-2.868637 2.19179,-1.046664 4.66771,-1.046664 2.35415,0 5.27655,1.550613 1.38002,0.736542 2.19179,1.666908 0.81178,0.93037 0.81178,1.8995 0,0.27136 -0.0406,0.54272 -0.0812,2.364676 -2.39474,2.984926 -1.01472,0.27136 -2.35415,0.27136 l -5.84479,-0.23259 q -2.9224,0 -4.46477,1.20172 -0.89296,0.65901 -1.25826,1.97703 1.01473,3.52765 5.19537,3.52765 z m 7.24511,-11.978486 q 0,0 -0.45663,-0.31012 -0.45662,-0.31013 -1.43075,-0.58148 -0.97413,-0.271361 -1.62355,-0.271361 -0.64943,0 -2.11062,0.407031 -1.4612,0.40704 -2.59769,0.91099 -2.80063,1.24049 -2.80063,2.59728 3.24711,0.27136 4.87066,0.27136 4.50536,0 6.08833,-0.73655 0.97413,-0.38765 0.97413,-0.96913 0,-0.69778 -0.91325,-1.31802 z m 7.6919,-0.34889 q 0,0 -0.0406,-1.046663 -0.0406,-1.046665 -0.12177,-2.694192 -0.0812,-1.647527 -0.10147,-2.442217 -0.0203,-0.794689 -0.66972,-3.895917 0.3653,-0.465184 0.71031,-0.891602 0.345,-0.426419 0.99442,-0.426419 1.42061,0 2.1918,11.43578 0.40589,6.628866 0.40589,13.257736 0,1.78321 -2.59769,1.78321 l -0.32471,-0.0388 q 0,-2.01579 -0.12176,-5.15579 -0.12177,-3.13999 -0.18265,-5.46591 -0.0609,-2.325916 -0.14206,-4.419246 z m 19.68735,5.039496 q 4.46477,0 4.46477,2.17085 0,1.62815 -2.47591,3.79901 -3.69359,3.21752 -9.94427,5.15579 -0.28412,0 -0.62912,-0.54272 -0.34501,-0.54271 -0.52766,-0.83345 -0.18265,-0.29074 -0.26383,-0.36827 4.66772,-1.47308 7.67129,-3.56641 2.02944,-1.39556 2.02944,-2.28716 0,-0.8916 -2.39474,-0.8916 -2.39474,0 -7.02186,1.08543 -2.11062,-0.0775 -3.653,-1.43432 -1.33943,-1.20172 -1.33943,-2.42283 0,-1.221106 0.7306,-2.248386 0.7306,-1.02728 1.94826,-1.91889 1.21767,-0.8916 2.84122,-1.628142 3.97771,-1.821971 8.23953,-1.821971 1.25826,0 2.43533,0.232592 0.97413,0 1.13649,0.814072 0.16235,0.814072 0.16235,2.674809 -2.39474,-1.04666 -5.39831,-1.04666 -3.73417,0 -6.1695,1.43431 -2.51651,1.39556 -2.59769,3.643946 0,1.08543 1.66415,1.08543 l 2.96298,-0.31013 q 3.81535,-0.7753 6.12891,-0.7753 z"
     style="white-space:pre;fill-opacity:0.92;stroke:#000000;stroke-width:0.683815;paint-order:stroke"
     id="path4" />
</svg>
